<?xml version="1.0" encoding="utf-8"?>
<!-- Generator: Adobe Illustrator 25.2.1, SVG Export Plug-In . SVG Version: 6.00 Build 0)  -->
<svg version="1.1" id="Calque_1" xmlns="http://www.w3.org/2000/svg" xmlns:xlink="http://www.w3.org/1999/xlink" x="0px" y="0px"
	 viewBox="0 0 356 80.3" style="enable-background:new 0 0 356 80.3;" xml:space="preserve">
<style type="text/css">
	.st0{fill:#CC201A;}
	.st1{fill:#0066CC;}
	.st2{fill:#444444;}
</style>
<path class="st0" d="M84.1,0v1c-2.8,0-5.6,0.3-8.3,1c-2.9,0.7-5.7,1.9-8.2,3.4C64.8,7,62.2,9.1,60,11.5H8.5C14.7,4.5,23.8,0,33.9,0
	H84.1z"/>
<path class="st0" d="M57.8,14.1c-2.6,3.4-4.5,7.4-5.6,11.5H1c1.1-4.2,2.9-8.1,5.4-11.5H57.8z"/>
<path class="st0" d="M51.2,33.9c0,1.9,0.2,3.9,0.5,5.7H0.5C0.2,37.8,0,35.9,0,33.9c0-2,0.2-3.9,0.5-5.8h51.2
	C51.3,30.1,51.2,32,51.2,33.9z"/>
<path class="st0" d="M57.8,53.8H6.4C3.9,50.4,2.1,46.5,1,42.3h51.2C53.3,46.4,55.2,50.3,57.8,53.8z"/>
<path class="st0" d="M84.1,66.9v1H33.9c-10.1,0-19.2-4.5-25.4-11.5H60c2.2,2.4,4.8,4.5,7.6,6.1c2.6,1.5,5.4,2.6,8.2,3.4
	C78.5,66.5,81.3,66.9,84.1,66.9z"/>
<path class="st1" d="M77,18.4c2.6-1.5,5.4-2.2,8.5-2.2c2.4,0,4.6,0.3,6.5,0.9c1.9,0.6,3.7,1.5,5.2,2.5c1.5,1.1,2.9,2.3,4,3.6V13.2
	c-2.1-1.8-4.3-3.1-6.8-4c-2.5-0.9-5.5-1.4-9.3-1.4c-3.7,0-7.1,0.6-10.3,1.9c-3.2,1.3-6,3.1-8.3,5.4c-2.3,2.3-4.2,5.1-5.5,8.3
	c-1.3,3.2-2,6.7-2,10.5c0,3.8,0.7,7.3,2,10.5c1.3,3.2,3.2,6,5.5,8.3c2.4,2.4,5.1,4.2,8.3,5.4C78,59.4,81.5,60,85.2,60
	c3.7,0,6.8-0.5,9.3-1.4c2.5-0.9,4.7-2.2,6.8-4V44.6c-1.2,1.4-2.5,2.6-4,3.7c-1.5,1.1-3.3,1.9-5.2,2.6c-2,0.6-4.1,0.9-6.5,0.9
	c-3.1,0-5.9-0.8-8.5-2.2c-2.6-1.5-4.7-3.6-6.3-6.2c-1.6-2.7-2.4-5.8-2.4-9.3c0-3.6,0.8-6.7,2.4-9.4C72.3,21.9,74.4,19.8,77,18.4z"/>
<path class="st1" d="M154.8,23.5c-1.1-2.6-2.5-4.9-4.3-6.9c-0.4-0.5-0.8-0.9-1.3-1.3c-2.4-2.3-5.2-4.2-8.3-5.5c-1-0.4-2-0.8-3.1-1.1
	c-2.3-0.6-4.7-0.9-7.3-0.9c-3.7,0-7.1,0.7-10.3,2c-3.2,1.3-6,3.1-8.3,5.5s-4.2,5.1-5.5,8.2c-1.3,3.2-1.9,6.7-1.9,10.4
	c0,3.8,0.7,7.2,1.9,10.4c1.3,3.2,3.1,6,5.5,8.4c2.4,2.4,5.1,4.2,8.3,5.5c3.2,1.3,6.7,2,10.4,2c3.8,0,7.3-0.7,10.5-2
	c3.2-1.3,5.9-3.1,8.3-5.5c2.4-2.4,4.2-5.1,5.5-8.4c1.3-3.2,1.9-6.7,1.9-10.4C156.7,30.2,156.1,26.7,154.8,23.5z M145.4,43.2
	c-1.5,2.7-3.5,4.8-6,6.4c-2.6,1.6-5.5,2.3-8.9,2.3c-3.3,0-6.2-0.8-8.8-2.3c-2.6-1.6-4.6-3.7-6.1-6.4c-1.5-2.7-2.2-5.8-2.2-9.2
	c0-3.5,0.7-6.5,2.2-9.2c1.5-2.7,3.5-4.8,6.1-6.4c2.6-1.5,5.5-2.3,8.8-2.3c3.4,0,6.4,0.8,9,2.3c2.6,1.5,4.6,3.7,6,6.4
	c1.4,2.7,2.2,5.8,2.2,9.2C147.6,37.4,146.9,40.5,145.4,43.2z"/>
<path class="st1" d="M233.2,58.6l-13.8-19.4c0.9-0.3,1.8-0.6,2.7-1c2.7-1.3,4.8-3.1,6.3-5.5c1.5-2.4,2.3-5.1,2.3-8.3
	c0-3.2-0.8-5.9-2.3-8.3c-1.5-2.3-3.6-4.1-6.3-5.4c-2.7-1.3-5.9-2-9.6-2h-66.7c2.1,1.2,4,2.7,5.7,4.3c1.1,1.1,2.1,2.3,3,3.5h15.9
	v42.5h8.5V16.6h18.1v42.5h8.5V40.1h5.3l12.7,19.1h10.3L233.2,58.6z M205.4,16.1h6.7c2,0,3.7,0.3,5.1,1c1.4,0.7,2.6,1.6,3.4,2.9
	c0.8,1.2,1.2,2.8,1.2,4.6c0,1.8-0.4,3.3-1.2,4.6c-0.8,1.3-2,2.2-3.4,2.9c-1.4,0.6-3.1,1-5.1,1h-6.7V16.1z"/>
<path class="st1" d="M269.4,39H246l-1.6,7.2H271L269.4,39z M257.5,6l-24.3,52.6l-0.3,0.6h9.6l5.7-13l1.3-2.8l0.1-1.9l1.1-2.5l6.8-16
	l6.9,16l1.2,2.7l0.1,2.1l1.1,2.4l5.8,13h9.7L257.5,6z"/>
<path class="st1" d="M295.4,18.4c2.6-1.5,5.4-2.2,8.5-2.2c2.4,0,4.6,0.3,6.5,0.9c1.9,0.6,3.7,1.5,5.2,2.5c1.5,1.1,2.9,2.3,4,3.6
	V13.2c-2.1-1.8-4.3-3.1-6.8-4c-2.5-0.9-5.5-1.4-9.3-1.4c-3.7,0-7.1,0.6-10.3,1.9c-3.2,1.3-6,3.1-8.3,5.4c-2.3,2.3-4.2,5.1-5.5,8.3
	c-1.3,3.2-2,6.7-2,10.5c0,3.8,0.7,7.3,2,10.5c1.3,3.2,3.2,6,5.5,8.3c2.4,2.4,5.1,4.2,8.3,5.4c3.2,1.2,6.6,1.9,10.3,1.9
	c3.7,0,6.8-0.5,9.3-1.4c2.5-0.9,4.7-2.2,6.8-4V44.6c-1.2,1.4-2.5,2.6-4,3.7c-1.5,1.1-3.3,1.9-5.2,2.6c-2,0.6-4.1,0.9-6.5,0.9
	c-3.1,0-5.9-0.8-8.5-2.2c-2.6-1.5-4.7-3.6-6.3-6.2c-1.6-2.7-2.4-5.8-2.4-9.3c0-3.6,0.8-6.7,2.4-9.4
	C290.7,21.9,292.8,19.8,295.4,18.4z"/>
<path class="st0" d="M329.4,55.6c-0.5-0.5-1.1-0.7-1.8-0.7c-0.7,0-1.3,0.2-1.8,0.7c-0.5,0.5-0.7,1.1-0.7,1.8c0,0.7,0.2,1.3,0.7,1.8
	c0.5,0.5,1.1,0.8,1.8,0.8c0.7,0,1.3-0.3,1.8-0.8s0.7-1.1,0.7-1.8C330.2,56.6,329.9,56,329.4,55.6z"/>
<path class="st0" d="M343.7,31.5c-0.3-0.3-0.8-0.5-1.2-0.6c-0.5-0.2-1-0.3-1.7-0.3c-1.2,0-2.2,0.2-2.9,0.7c-0.8,0.5-1.4,1.1-1.8,2
	c-0.4,0.9-0.6,1.9-0.6,3.2v22.7h3.8V37.2c0-0.7,0.1-1.3,0.2-1.7s0.3-0.8,0.6-0.9c0.3-0.2,0.6-0.3,0.9-0.3c0.3,0,0.6,0.1,0.9,0.2
	c0.3,0.1,0.6,0.4,0.8,0.8l1.8-3C344.3,32,344,31.8,343.7,31.5z M333.6,42.6V46h9.5v-3.4H333.6z"/>
<path class="st0" d="M354.7,42.5c-0.5-0.2-1.1-0.3-1.7-0.3c-0.8,0-1.6,0.3-2.4,0.9c-0.5,0.4-1,0.9-1.3,1.5c-0.2,0.3-0.4,0.6-0.6,1
	c-0.5,1-0.7,2.2-0.7,3.5l1.3,0.8c0-0.8,0.1-1.5,0.3-2.1c0.2-0.6,0.5-1,0.9-1.4c0.4-0.3,0.9-0.5,1.6-0.5c0.5,0,0.9,0.1,1.2,0.2
	c0.3,0.2,0.6,0.4,1,0.7l1.9-3.3C355.7,43,355.2,42.7,354.7,42.5z M345.3,42.6v16.6h3.9V42.6H345.3z"/>
<path class="st2" d="M96.4,77.4L94,70.9h1.5l1.3,3.8c0.2,0.6,0.4,1.1,0.4,1.5h0c0-0.3,0.2-0.8,0.4-1.5l1.3-3.8h1.5l-2.5,6.5H96.4z"
	/>
<path class="st2" d="M107.4,74.2c0,1.1-0.3,1.9-0.8,2.5s-1.3,0.9-2.3,0.9c-0.6,0-1.1-0.1-1.6-0.4s-0.8-0.7-1.1-1.2s-0.4-1.1-0.4-1.8
	c0-1.1,0.3-1.9,0.8-2.5s1.3-0.9,2.3-0.9c0.9,0,1.7,0.3,2.2,0.9S107.4,73.1,107.4,74.2z M102.7,74.2c0,1.5,0.6,2.2,1.7,2.2
	c1.1,0,1.6-0.7,1.6-2.2c0-1.5-0.6-2.2-1.7-2.2c-0.6,0-1,0.2-1.3,0.6S102.7,73.5,102.7,74.2z"/>
<path class="st2" d="M111.7,76.4c0.3,0,0.7-0.1,1-0.2v1c-0.2,0.1-0.3,0.1-0.6,0.2s-0.5,0.1-0.7,0.1c-1.3,0-2-0.7-2-2.1V72h-0.9v-0.6
	l0.9-0.5l0.5-1.4h0.8v1.4h1.8v1h-1.8v3.5c0,0.3,0.1,0.6,0.2,0.7S111.5,76.4,111.7,76.4z"/>
<path class="st2" d="M117.6,70.8c0.3,0,0.5,0,0.7,0.1l-0.1,1.3c-0.2,0-0.4-0.1-0.6-0.1c-0.6,0-1,0.2-1.3,0.5s-0.5,0.8-0.5,1.4v3.4
	h-1.4v-6.5h1.1l0.2,1.1h0.1c0.2-0.4,0.5-0.7,0.8-0.9S117.2,70.8,117.6,70.8z"/>
<path class="st2" d="M122.6,77.5c-1,0-1.8-0.3-2.4-0.9s-0.9-1.4-0.9-2.4c0-1.1,0.3-1.9,0.8-2.5s1.3-0.9,2.2-0.9c0.9,0,1.5,0.3,2,0.8
	s0.7,1.2,0.7,2.1v0.7h-4.3c0,0.6,0.2,1.1,0.5,1.5s0.8,0.5,1.4,0.5c0.4,0,0.7,0,1.1-0.1s0.7-0.2,1.1-0.4v1.1c-0.3,0.2-0.7,0.3-1,0.3
	S123.1,77.5,122.6,77.5z M122.4,71.9c-0.4,0-0.8,0.1-1.1,0.4s-0.4,0.7-0.5,1.2h2.9c0-0.5-0.1-0.9-0.4-1.2S122.8,71.9,122.4,71.9z"/>
<path class="st2" d="M133.7,77.5c-0.8,0-1.5-0.3-1.9-0.9h-0.1c0.1,0.5,0.1,0.9,0.1,1v2.7h-1.4v-9.4h1.1c0,0.1,0.1,0.4,0.2,0.9h0.1
	c0.4-0.7,1.1-1,1.9-1c0.8,0,1.4,0.3,1.9,0.9s0.7,1.4,0.7,2.5s-0.2,1.9-0.7,2.5S134.5,77.5,133.7,77.5z M133.4,71.9
	c-0.5,0-0.9,0.2-1.2,0.5s-0.4,0.8-0.4,1.5v0.2c0,0.8,0.1,1.4,0.4,1.7s0.7,0.5,1.2,0.5c0.5,0,0.8-0.2,1.1-0.6s0.4-0.9,0.4-1.7
	c0-0.7-0.1-1.3-0.4-1.6S133.9,71.9,133.4,71.9z"/>
<path class="st2" d="M142.3,77.4l-0.3-0.9h0c-0.3,0.4-0.6,0.7-0.9,0.8s-0.7,0.2-1.2,0.2c-0.6,0-1.1-0.2-1.5-0.5s-0.5-0.8-0.5-1.5
	c0-0.7,0.2-1.2,0.7-1.5s1.3-0.5,2.3-0.6l1.1,0v-0.3c0-0.4-0.1-0.7-0.3-0.9s-0.5-0.3-0.9-0.3c-0.3,0-0.7,0-1,0.1s-0.6,0.2-0.9,0.3
	l-0.4-1c0.4-0.2,0.7-0.3,1.2-0.4s0.8-0.1,1.2-0.1c0.8,0,1.4,0.2,1.9,0.5s0.6,0.9,0.6,1.7v4.4H142.3z M140.2,76.5
	c0.5,0,0.9-0.1,1.2-0.4s0.5-0.7,0.5-1.2v-0.6l-0.8,0c-0.6,0-1.1,0.1-1.4,0.3s-0.4,0.5-0.4,0.9c0,0.3,0.1,0.5,0.3,0.7
	S139.9,76.5,140.2,76.5z"/>
<path class="st2" d="M148.9,70.8c0.2,0,0.4,0,0.5,0.1l-0.1,1.3c-0.2,0-0.3-0.1-0.5-0.1c-0.4,0-0.8,0.2-1,0.5s-0.4,0.8-0.4,1.4v3.4
	h-1.1v-6.5h0.8l0.1,1.1h0.1c0.2-0.4,0.4-0.7,0.7-0.9S148.6,70.8,148.9,70.8z"/>
<path class="st2" d="M153.4,76.4c0.3,0,0.7-0.1,1-0.2v1c-0.2,0.1-0.3,0.1-0.6,0.2s-0.5,0.1-0.7,0.1c-1.3,0-2-0.7-2-2.1V72h-0.9v-0.6
	l0.9-0.5l0.5-1.4h0.8v1.4h1.8v1h-1.8v3.5c0,0.3,0.1,0.6,0.2,0.7S153.1,76.4,153.4,76.4z"/>
<path class="st2" d="M158.8,77.5c-1,0-1.8-0.3-2.4-0.9s-0.9-1.4-0.9-2.4c0-1.1,0.3-1.9,0.8-2.5s1.3-0.9,2.2-0.9c0.9,0,1.5,0.3,2,0.8
	s0.7,1.2,0.7,2.1v0.7H157c0,0.6,0.2,1.1,0.5,1.5s0.8,0.5,1.4,0.5c0.4,0,0.7,0,1.1-0.1s0.7-0.2,1.1-0.4v1.1c-0.3,0.2-0.7,0.3-1,0.3
	S159.2,77.5,158.8,77.5z M158.5,71.9c-0.4,0-0.8,0.1-1.1,0.4s-0.4,0.7-0.5,1.2h2.9c0-0.5-0.1-0.9-0.4-1.2S159,71.9,158.5,71.9z"/>
<path class="st2" d="M168.9,77.4h-1.4v-4c0-0.5-0.1-0.9-0.3-1.1s-0.5-0.4-1-0.4c-0.6,0-1,0.2-1.3,0.5s-0.4,0.9-0.4,1.7v3.2h-1.4
	v-6.5h1.1l0.2,0.8h0.1c0.2-0.3,0.5-0.5,0.8-0.7s0.8-0.3,1.2-0.3c1.6,0,2.3,0.8,2.3,2.4V77.4z"/>
<path class="st2" d="M175.2,77.4l-0.3-0.9h0c-0.3,0.4-0.6,0.7-0.9,0.8s-0.7,0.2-1.2,0.2c-0.6,0-1.1-0.2-1.5-0.5s-0.5-0.8-0.5-1.5
	c0-0.7,0.2-1.2,0.7-1.5s1.3-0.5,2.3-0.6l1.1,0v-0.3c0-0.4-0.1-0.7-0.3-0.9s-0.5-0.3-0.9-0.3c-0.3,0-0.7,0-1,0.1s-0.6,0.2-0.9,0.3
	l-0.4-1c0.4-0.2,0.7-0.3,1.2-0.4s0.8-0.1,1.2-0.1c0.8,0,1.4,0.2,1.9,0.5s0.6,0.9,0.6,1.7v4.4H175.2z M173.1,76.5
	c0.5,0,0.9-0.1,1.2-0.4s0.5-0.7,0.5-1.2v-0.6l-0.8,0c-0.6,0-1.1,0.1-1.4,0.3s-0.4,0.5-0.4,0.9c0,0.3,0.1,0.5,0.3,0.7
	S172.8,76.5,173.1,76.5z"/>
<path class="st2" d="M178.3,69.2c0-0.2,0.1-0.4,0.2-0.6s0.3-0.2,0.6-0.2c0.2,0,0.4,0.1,0.6,0.2s0.2,0.3,0.2,0.6
	c0,0.2-0.1,0.4-0.2,0.6s-0.3,0.2-0.6,0.2c-0.3,0-0.4-0.1-0.6-0.2S178.3,69.5,178.3,69.2z M179.7,77.4h-1.4v-6.5h1.4V77.4z"/>
<path class="st2" d="M185.3,70.8c0.3,0,0.5,0,0.7,0.1l-0.1,1.3c-0.2,0-0.4-0.1-0.6-0.1c-0.6,0-1,0.2-1.3,0.5s-0.5,0.8-0.5,1.4v3.4
	H182v-6.5h1.1l0.2,1.1h0.1c0.2-0.4,0.5-0.7,0.8-0.9S184.9,70.8,185.3,70.8z"/>
<path class="st2" d="M190.3,77.5c-1,0-1.8-0.3-2.4-0.9s-0.9-1.4-0.9-2.4c0-1.1,0.3-1.9,0.8-2.5s1.3-0.9,2.2-0.9c0.9,0,1.5,0.3,2,0.8
	s0.7,1.2,0.7,2.1v0.7h-4.3c0,0.6,0.2,1.1,0.5,1.5s0.8,0.5,1.4,0.5c0.4,0,0.7,0,1.1-0.1s0.7-0.2,1.1-0.4v1.1c-0.3,0.2-0.7,0.3-1,0.3
	S190.7,77.5,190.3,77.5z M190.1,71.9c-0.4,0-0.8,0.1-1.1,0.4s-0.4,0.7-0.5,1.2h2.9c0-0.5-0.1-0.9-0.4-1.2S190.5,71.9,190.1,71.9z"/>
<path class="st2" d="M200.3,77.5c-0.8,0-1.4-0.3-1.9-0.9s-0.7-1.4-0.7-2.5c0-1.1,0.2-1.9,0.7-2.5s1.1-0.9,1.9-0.9
	c0.9,0,1.5,0.3,1.9,0.9h0.1c-0.1-0.5-0.1-0.8-0.1-1.1v-2.4h1.4v9.1h-1.1l-0.2-0.8h-0.1C201.8,77.2,201.1,77.5,200.3,77.5z
	 M200.7,76.4c0.6,0,1-0.2,1.2-0.5s0.4-0.8,0.4-1.5v-0.2c0-0.8-0.1-1.4-0.4-1.7s-0.7-0.5-1.2-0.5c-0.5,0-0.9,0.2-1.1,0.6
	s-0.4,1-0.4,1.7c0,0.7,0.1,1.3,0.4,1.6S200.2,76.4,200.7,76.4z"/>
<path class="st2" d="M208.7,77.5c-1,0-1.8-0.3-2.4-0.9s-0.9-1.4-0.9-2.4c0-1.1,0.3-1.9,0.8-2.5s1.3-0.9,2.2-0.9c0.9,0,1.5,0.3,2,0.8
	s0.7,1.2,0.7,2.1v0.7h-4.3c0,0.6,0.2,1.1,0.5,1.5s0.8,0.5,1.4,0.5c0.4,0,0.7,0,1.1-0.1s0.7-0.2,1.1-0.4v1.1c-0.3,0.2-0.7,0.3-1,0.3
	S209.2,77.5,208.7,77.5z M208.5,71.9c-0.4,0-0.8,0.1-1.1,0.4s-0.4,0.7-0.5,1.2h2.9c0-0.5-0.1-0.9-0.4-1.2S208.9,71.9,208.5,71.9z"/>
<path class="st2" d="M217.9,77.4h-1.4v-9.1h1.4V77.4z"/>
<path class="st2" d="M224.2,77.4l-0.3-0.9h0c-0.3,0.4-0.6,0.7-0.9,0.8s-0.7,0.2-1.2,0.2c-0.6,0-1.1-0.2-1.5-0.5s-0.5-0.8-0.5-1.5
	c0-0.7,0.2-1.2,0.7-1.5s1.3-0.5,2.3-0.6l1.1,0v-0.3c0-0.4-0.1-0.7-0.3-0.9s-0.5-0.3-0.9-0.3c-0.3,0-0.7,0-1,0.1s-0.6,0.2-0.9,0.3
	l-0.4-1c0.4-0.2,0.7-0.3,1.2-0.4s0.8-0.1,1.2-0.1c0.8,0,1.4,0.2,1.9,0.5s0.6,0.9,0.6,1.7v4.4H224.2z M222.2,76.5
	c0.5,0,0.9-0.1,1.2-0.4s0.5-0.7,0.5-1.2v-0.6l-0.8,0c-0.6,0-1.1,0.1-1.4,0.3s-0.4,0.5-0.4,0.9c0,0.3,0.1,0.5,0.3,0.7
	S221.8,76.5,222.2,76.5z"/>
<path class="st2" d="M234.1,77.5c-0.8,0-1.5-0.3-1.9-0.9h-0.1c0.1,0.5,0.1,0.9,0.1,1v2.7h-1.4v-9.4h1.1c0,0.1,0.1,0.4,0.2,0.9h0.1
	c0.4-0.7,1.1-1,1.9-1c0.8,0,1.4,0.3,1.9,0.9s0.7,1.4,0.7,2.5s-0.2,1.9-0.7,2.5S234.9,77.5,234.1,77.5z M233.8,71.9
	c-0.5,0-0.9,0.2-1.2,0.5s-0.4,0.8-0.4,1.5v0.2c0,0.8,0.1,1.4,0.4,1.7s0.7,0.5,1.2,0.5c0.5,0,0.8-0.2,1.1-0.6s0.4-0.9,0.4-1.7
	c0-0.7-0.1-1.3-0.4-1.6S234.3,71.9,233.8,71.9z"/>
<path class="st2" d="M238.5,69.2c0-0.2,0.1-0.4,0.2-0.6s0.3-0.2,0.6-0.2c0.2,0,0.4,0.1,0.6,0.2s0.2,0.3,0.2,0.6
	c0,0.2-0.1,0.4-0.2,0.6s-0.3,0.2-0.6,0.2c-0.3,0-0.4-0.1-0.6-0.2S238.5,69.5,238.5,69.2z M240,77.4h-1.4v-6.5h1.4V77.4z"/>
<path class="st2" d="M245.1,77.5c-1,0-1.8-0.3-2.4-0.9s-0.9-1.4-0.9-2.4c0-1.1,0.3-1.9,0.8-2.5s1.3-0.9,2.2-0.9c0.9,0,1.5,0.3,2,0.8
	s0.7,1.2,0.7,2.1v0.7h-4.3c0,0.6,0.2,1.1,0.5,1.5s0.8,0.5,1.4,0.5c0.4,0,0.7,0,1.1-0.1s0.7-0.2,1.1-0.4v1.1c-0.3,0.2-0.7,0.3-1,0.3
	S245.5,77.5,245.1,77.5z M244.8,70.1c-0.3-0.2-0.6-0.5-1-0.9s-0.7-0.7-0.9-0.9v-0.1h1.6c0.1,0.3,0.4,0.6,0.6,0.9s0.5,0.6,0.6,0.8
	v0.1H244.8z M244.8,71.9c-0.4,0-0.8,0.1-1.1,0.4s-0.4,0.7-0.5,1.2h2.9c0-0.5-0.1-0.9-0.4-1.2S245.3,71.9,244.8,71.9z"/>
<path class="st2" d="M252.1,77.5c-1,0-1.7-0.3-2.2-0.9s-0.8-1.4-0.8-2.5c0-1.1,0.3-1.9,0.8-2.5s1.3-0.9,2.3-0.9
	c0.7,0,1.3,0.1,1.8,0.4l-0.4,1.1c-0.6-0.2-1.1-0.3-1.4-0.3c-1.1,0-1.7,0.7-1.7,2.2c0,0.7,0.1,1.3,0.4,1.6s0.7,0.5,1.2,0.5
	c0.6,0,1.2-0.2,1.7-0.5v1.2c-0.2,0.1-0.5,0.2-0.8,0.3S252.5,77.5,252.1,77.5z"/>
<path class="st2" d="M258.5,77.5c-1,0-1.8-0.3-2.4-0.9s-0.9-1.4-0.9-2.4c0-1.1,0.3-1.9,0.8-2.5s1.3-0.9,2.2-0.9c0.9,0,1.5,0.3,2,0.8
	s0.7,1.2,0.7,2.1v0.7h-4.3c0,0.6,0.2,1.1,0.5,1.5s0.8,0.5,1.4,0.5c0.4,0,0.7,0,1.1-0.1s0.7-0.2,1.1-0.4v1.1c-0.3,0.2-0.7,0.3-1,0.3
	S259,77.5,258.5,77.5z M258.3,71.9c-0.4,0-0.8,0.1-1.1,0.4s-0.4,0.7-0.5,1.2h2.9c0-0.5-0.1-0.9-0.4-1.2S258.7,71.9,258.3,71.9z"/>
<path class="st2" d="M269.5,77.4h-1.4v-7.4h-2.5v-1.2h6.4v1.2h-2.5V77.4z"/>
<path class="st2" d="M279.3,71.4c0,0.9-0.3,1.6-0.9,2.1s-1.4,0.7-2.5,0.7H275v3.2h-1.4v-8.6h2.5c1.1,0,1.9,0.2,2.4,0.7
	S279.3,70.6,279.3,71.4z M275,73h0.7c0.7,0,1.2-0.1,1.6-0.4s0.5-0.6,0.5-1.2c0-0.5-0.2-0.9-0.5-1.1S276.6,70,276,70h-1V73z"/>
<path class="st2" d="M286.7,77.5c-0.8,0-1.4-0.3-1.9-0.9s-0.7-1.4-0.7-2.5c0-1.1,0.2-1.9,0.7-2.5s1.1-0.9,1.9-0.9
	c0.9,0,1.5,0.3,1.9,0.9h0.1c-0.1-0.5-0.1-0.8-0.1-1.1v-2.4h1.4v9.1H289l-0.2-0.8h-0.1C288.2,77.2,287.6,77.5,286.7,77.5z
	 M287.1,76.4c0.6,0,1-0.2,1.2-0.5s0.4-0.8,0.4-1.5v-0.2c0-0.8-0.1-1.4-0.4-1.7s-0.7-0.5-1.2-0.5c-0.5,0-0.9,0.2-1.1,0.6
	s-0.4,1-0.4,1.7c0,0.7,0.1,1.3,0.4,1.6S286.6,76.4,287.1,76.4z"/>
<path class="st2" d="M295.1,77.5c-1,0-1.8-0.3-2.4-0.9s-0.9-1.4-0.9-2.4c0-1.1,0.3-1.9,0.8-2.5s1.3-0.9,2.2-0.9c0.9,0,1.5,0.3,2,0.8
	s0.7,1.2,0.7,2.1v0.7h-4.3c0,0.6,0.2,1.1,0.5,1.5s0.8,0.5,1.4,0.5c0.4,0,0.7,0,1.1-0.1s0.7-0.2,1.1-0.4v1.1c-0.3,0.2-0.7,0.3-1,0.3
	S295.6,77.5,295.1,77.5z M294.9,71.9c-0.4,0-0.8,0.1-1.1,0.4s-0.4,0.7-0.5,1.2h2.9c0-0.5-0.1-0.9-0.4-1.2S295.3,71.9,294.9,71.9z"/>
<path class="st2" d="M302.8,77.5c-0.8,0-1.5-0.3-1.9-0.9h-0.1c0.1,0.5,0.1,0.9,0.1,1v2.7h-1.4v-9.4h1.1c0,0.1,0.1,0.4,0.2,0.9h0.1
	c0.4-0.7,1.1-1,1.9-1c0.8,0,1.4,0.3,1.9,0.9s0.7,1.4,0.7,2.5s-0.2,1.9-0.7,2.5S303.6,77.5,302.8,77.5z M302.5,71.9
	c-0.5,0-0.9,0.2-1.2,0.5s-0.4,0.8-0.4,1.5v0.2c0,0.8,0.1,1.4,0.4,1.7s0.7,0.5,1.2,0.5c0.5,0,0.8-0.2,1.1-0.6s0.4-0.9,0.4-1.7
	c0-0.7-0.1-1.3-0.4-1.6S303,71.9,302.5,71.9z"/>
<path class="st2" d="M311.9,77.4l-0.2-0.8h-0.1c-0.2,0.3-0.5,0.5-0.8,0.7s-0.8,0.3-1.2,0.3c-0.8,0-1.4-0.2-1.8-0.6s-0.6-1-0.6-1.8
	v-4.2h1.4v4c0,0.5,0.1,0.9,0.3,1.1s0.5,0.4,1,0.4c0.6,0,1-0.2,1.3-0.5s0.4-0.9,0.4-1.7v-3.2h1.4v6.5H311.9z"/>
<path class="st2" d="M315.1,69.2c0-0.2,0.1-0.4,0.2-0.6s0.3-0.2,0.6-0.2c0.2,0,0.4,0.1,0.6,0.2s0.2,0.3,0.2,0.6
	c0,0.2-0.1,0.4-0.2,0.6s-0.3,0.2-0.6,0.2c-0.3,0-0.4-0.1-0.6-0.2S315.1,69.5,315.1,69.2z M316.6,77.4h-1.4v-6.5h1.4V77.4z"/>
<path class="st2" d="M323.2,75.6c0,0.6-0.2,1.1-0.7,1.5s-1.1,0.5-2,0.5c-0.9,0-1.6-0.1-2.1-0.4V76c0.8,0.4,1.5,0.5,2.1,0.5
	c0.8,0,1.3-0.3,1.3-0.8c0-0.2,0-0.3-0.1-0.4s-0.2-0.2-0.5-0.3s-0.5-0.3-0.9-0.4c-0.7-0.3-1.3-0.6-1.5-0.9s-0.4-0.7-0.4-1.1
	c0-0.6,0.2-1,0.7-1.3s1.1-0.5,1.8-0.5c0.8,0,1.5,0.2,2.2,0.5l-0.4,1c-0.7-0.3-1.3-0.4-1.8-0.4c-0.7,0-1.1,0.2-1.1,0.6
	c0,0.2,0.1,0.4,0.3,0.5s0.6,0.3,1.2,0.6c0.5,0.2,0.9,0.4,1.2,0.6s0.4,0.4,0.5,0.6S323.2,75.3,323.2,75.6z"/>
<path class="st2" d="M332,77.4h-1.4v-5.5c0-0.7,0-1.2,0-1.6c-0.1,0.1-0.2,0.2-0.3,0.3s-0.6,0.5-1.3,1.1l-0.7-0.9l2.5-2h1.1V77.4z"/>
<path class="st2" d="M340.9,72.5c0,1.7-0.3,2.9-1,3.8s-1.7,1.2-3.1,1.2c-0.5,0-0.9,0-1.1-0.1v-1.2c0.3,0.1,0.7,0.1,1,0.1
	c0.9,0,1.6-0.3,2.1-0.8s0.7-1.3,0.8-2.4h-0.1c-0.2,0.4-0.5,0.6-0.8,0.8s-0.7,0.2-1.1,0.2c-0.8,0-1.4-0.2-1.8-0.7s-0.7-1.1-0.7-1.9
	c0-0.9,0.3-1.6,0.8-2.1s1.2-0.8,2.1-0.8c0.6,0,1.1,0.1,1.6,0.4s0.8,0.7,1,1.3S340.9,71.7,340.9,72.5z M337.9,69.9
	c-0.5,0-0.8,0.2-1.1,0.5s-0.4,0.7-0.4,1.3c0,0.5,0.1,0.9,0.4,1.2s0.6,0.4,1.1,0.4c0.5,0,0.9-0.1,1.2-0.4s0.5-0.6,0.5-1
	c0-0.3-0.1-0.7-0.2-1s-0.3-0.5-0.6-0.7S338.2,69.9,337.9,69.9z"/>
<path class="st2" d="M345.2,68.7c0.8,0,1.5,0.2,1.9,0.6s0.7,0.9,0.7,1.5c0,0.9-0.5,1.6-1.6,2.1c0.7,0.3,1.1,0.7,1.4,1.1
	s0.4,0.8,0.4,1.2c0,0.7-0.3,1.3-0.8,1.7s-1.2,0.6-2.1,0.6c-0.9,0-1.7-0.2-2.2-0.6s-0.8-1-0.8-1.7c0-0.5,0.1-0.9,0.4-1.3
	s0.7-0.7,1.3-1c-0.5-0.3-0.9-0.6-1.1-1s-0.3-0.7-0.3-1.2c0-0.6,0.2-1.1,0.7-1.5S344.4,68.7,345.2,68.7z M343.6,75.2
	c0,0.4,0.1,0.7,0.4,0.9s0.7,0.3,1.2,0.3c0.5,0,0.9-0.1,1.2-0.3s0.4-0.5,0.4-0.9c0-0.3-0.1-0.6-0.4-0.9s-0.6-0.5-1.2-0.7l-0.2-0.1
	c-0.5,0.2-0.9,0.5-1.1,0.7S343.6,74.8,343.6,75.2z M345.2,69.8c-0.4,0-0.7,0.1-0.9,0.3s-0.4,0.5-0.4,0.8c0,0.2,0,0.4,0.1,0.5
	s0.2,0.3,0.4,0.4s0.4,0.3,0.8,0.5c0.5-0.2,0.8-0.4,1-0.7s0.3-0.5,0.3-0.8c0-0.3-0.1-0.6-0.4-0.8S345.6,69.8,345.2,69.8z"/>
<path class="st2" d="M353.5,77.4h-1.4v-5.5c0-0.7,0-1.2,0-1.6c-0.1,0.1-0.2,0.2-0.3,0.3s-0.6,0.5-1.3,1.1l-0.7-0.9l2.5-2h1.1V77.4z"
	/>
</svg>
